<?xml version="1.0" encoding="utf-8"?>
<!-- Generator: Adobe Illustrator 28.1.0, SVG Export Plug-In . SVG Version: 6.00 Build 0)  -->
<svg version="1.1" id="Layer_1" xmlns="http://www.w3.org/2000/svg" xmlns:xlink="http://www.w3.org/1999/xlink" x="0px" y="0px"
	 viewBox="0 0 488.11 181.02" style="enable-background:new 0 0 488.11 181.02;" xml:space="preserve">
<style type="text/css">
	.st0{fill:#049699;}
	.st1{fill:#049699;stroke:#049699;stroke-width:4;stroke-miterlimit:10;}
</style>
<path class="st0" d="M341.98,155.49c0,7.72,6.28,14,14,14h14v-8.34h-14v-7.78h21.78v23.89h-21.78c-12.01,0-21.78-9.77-21.78-21.78
	c0-12.01,9.77-21.78,21.78-21.78h21.78v7.78h-21.78C348.26,141.49,341.98,147.78,341.98,155.49z"/>
<path class="st0" d="M391.76,145.48v4.04h28v7.78h-28v8.21c0,2.18,1.8,3.98,3.98,3.98h31.8v7.78h-31.8c-6.47,0-11.7-5.29-11.7-11.76
	v-20.04c0-6.47,5.23-11.76,11.7-11.76h31.8v7.78h-31.8C393.56,141.49,391.76,143.3,391.76,145.48z"/>
<path class="st0" d="M477.31,133.78v43.56l-7.78-5.97l-28-21.59v27.57h-7.78V133.9l7.78,5.97l28,21.59v-27.75L477.31,133.78z"/>
<circle class="st1" cx="189.63" cy="60.39" r="50.7"/>
<path class="st1" d="M473.67,110.71c-41.64,0-82.17,0-123.81,0c20.84-33.88,41.19-66.96,62.15-101.02
	C432.73,43.61,452.92,76.71,473.67,110.71z"/>
<path class="st1" d="M246.85,6.36c43.17,0,85.18,0,128.34,0c-21.61,35.12-42.7,69.41-64.43,104.72
	C289.29,75.91,268.35,41.6,246.85,6.36z"/>
<polygon class="st0" points="101.39,6.36 101.39,100.07 7.68,6.36 7.68,111.08 101.39,111.08 112.41,111.08 112.41,6.36 "/>
</svg>
