<svg width="18" height="18" viewBox="0 0 18 18" fill="none" xmlns="http://www.w3.org/2000/svg">
<path d="M3.75 14.25H4.81875L12.15 6.91875L11.0813 5.85L3.75 13.1813V14.25ZM2.25 15.75V12.5625L12.15 2.68125C12.3 2.54375 12.4656 2.4375 12.6469 2.3625C12.8281 2.2875 13.0188 2.25 13.2188 2.25C13.4188 2.25 13.6125 2.2875 13.8 2.3625C13.9875 2.4375 14.15 2.55 14.2875 2.7L15.3188 3.75C15.4688 3.8875 15.5781 4.05 15.6469 4.2375C15.7156 4.425 15.75 4.6125 15.75 4.8C15.75 5 15.7156 5.19063 15.6469 5.37188C15.5781 5.55313 15.4688 5.71875 15.3188 5.86875L5.4375 15.75H2.25ZM11.6063 6.39375L11.0813 5.85L12.15 6.91875L11.6063 6.39375Z" fill="#4AB58E"/>
</svg>
