<svg width="25" height="25" viewBox="0 0 25 25" fill="none" xmlns="http://www.w3.org/2000/svg">
<path d="M4.16671 20.8332C3.59379 20.8332 3.10334 20.6292 2.69535 20.2212C2.28737 19.8132 2.08337 19.3228 2.08337 18.7498V6.24984C2.08337 5.67692 2.28737 5.18647 2.69535 4.77848C3.10334 4.3705 3.59379 4.1665 4.16671 4.1665H20.8334C21.4063 4.1665 21.8967 4.3705 22.3047 4.77848C22.7127 5.18647 22.9167 5.67692 22.9167 6.24984V18.7498C22.9167 19.3228 22.7127 19.8132 22.3047 20.2212C21.8967 20.6292 21.4063 20.8332 20.8334 20.8332H4.16671ZM12.5 13.5415L4.16671 8.33317V18.7498H20.8334V8.33317L12.5 13.5415ZM12.5 11.4582L20.8334 6.24984H4.16671L12.5 11.4582ZM4.16671 8.33317V6.24984V18.7498V8.33317Z" fill="#616161"/>
</svg>
