<svg width="25" height="25" viewBox="0 0 25 25" fill="none" xmlns="http://www.w3.org/2000/svg">
<path d="M5.88538 10.4425L7.91663 11.3019C8.15968 10.8157 8.41142 10.347 8.67183 9.89561C8.93225 9.44422 9.21871 8.99283 9.53121 8.54144L8.07288 8.25498L5.88538 10.4425ZM9.58329 12.6039L12.552 15.5466C13.2812 15.2689 14.0625 14.8435 14.8958 14.2706C15.7291 13.6977 16.5104 13.0466 17.2395 12.3175C18.4548 11.1022 19.4053 9.75238 20.0911 8.268C20.7769 6.78363 21.0763 5.41644 20.9895 4.16644C19.7395 4.07964 18.368 4.37911 16.875 5.06488C15.3819 5.75064 14.0277 6.70116 12.8125 7.91644C12.0833 8.64561 11.4323 9.42686 10.8593 10.2602C10.2864 11.0935 9.86107 11.8748 9.58329 12.6039ZM14.2187 10.9112C13.8194 10.5119 13.6198 10.0215 13.6198 9.43988C13.6198 8.85828 13.8194 8.36783 14.2187 7.96852C14.618 7.56922 15.1128 7.36957 15.7031 7.36957C16.2934 7.36957 16.7882 7.56922 17.1875 7.96852C17.5868 8.36783 17.7864 8.85828 17.7864 9.43988C17.7864 10.0215 17.5868 10.5119 17.1875 10.9112C16.7882 11.3105 16.2934 11.5102 15.7031 11.5102C15.1128 11.5102 14.618 11.3105 14.2187 10.9112ZM14.7135 19.2706L16.901 17.0831L16.6145 15.6248C16.1632 15.9373 15.7118 16.2194 15.2604 16.4711C14.809 16.7229 14.3402 16.9703 13.8541 17.2133L14.7135 19.2706ZM22.8645 2.2654C23.1944 4.36609 22.9904 6.41036 22.2526 8.39821C21.5147 10.3861 20.243 12.2828 18.4375 14.0883L18.9583 16.6664C19.0277 17.0137 19.0104 17.3522 18.9062 17.6821C18.802 18.0119 18.6284 18.2984 18.3854 18.5414L14.0104 22.9164L11.8229 17.7862L7.36975 13.3331L2.23954 11.1456L6.5885 6.77061C6.83156 6.52755 7.12236 6.35394 7.4609 6.24977C7.79944 6.14561 8.14232 6.12825 8.48954 6.19769L11.0677 6.71852C12.8732 4.91297 14.7656 3.63693 16.7448 2.8904C18.7239 2.14387 20.7638 1.93554 22.8645 2.2654ZM4.0885 16.6404C4.69614 16.0328 5.43833 15.7246 6.31506 15.7159C7.1918 15.7072 7.93399 16.0067 8.54163 16.6144C9.14927 17.222 9.44874 17.9642 9.44006 18.8409C9.43138 19.7177 9.12322 20.4598 8.51558 21.0675C8.08156 21.5015 7.35673 21.8748 6.34111 22.1873C5.32548 22.4998 3.92357 22.7776 2.13538 23.0206C2.37843 21.2324 2.65621 19.8305 2.96871 18.8149C3.28121 17.7993 3.65447 17.0744 4.0885 16.6404ZM5.57288 18.0987C5.39927 18.2723 5.22565 18.5892 5.05204 19.0493C4.87843 19.5093 4.7569 19.9737 4.68746 20.4425C5.15621 20.373 5.62062 20.2558 6.08069 20.0909C6.54076 19.926 6.8576 19.7567 7.03121 19.5831C7.23954 19.3748 7.35239 19.123 7.36975 18.8279C7.38711 18.5328 7.29163 18.281 7.08329 18.0727C6.87496 17.8644 6.62322 17.7645 6.32808 17.7732C6.03295 17.7819 5.78121 17.8904 5.57288 18.0987Z" fill="#636060"/>
</svg>
